 <svg width="14" height="18" class="me-2" viewBox="0 0 14 18" fill="none"
                                xmlns="http://www.w3.org/2000/svg">
                                <path fill-rule="evenodd" clip-rule="evenodd"
                                    d="M6.98472 16.999L7.61411 16.2898C8.32828 15.4719 8.97064 14.6959 9.54217 13.9578L10.014 13.3354C11.9839 10.6812 12.9694 8.57459 12.9694 7.01758C12.9694 3.6941 10.2903 1 6.98472 1C3.6792 1 1.00006 3.6941 1.00006 7.01758C1.00006 8.57459 1.98554 10.6812 3.95549 13.3354L4.42728 13.9578C5.24263 15.0025 6.09567 16.0162 6.98472 16.999Z"
                                    stroke="#000" stroke-linecap="round" stroke-linejoin="round" />
                                <path
                                    d="M6.98469 9.47816C8.36187 9.47816 9.4783 8.36173 9.4783 6.98455C9.4783 5.60736 8.36187 4.49094 6.98469 4.49094C5.60751 4.49094 4.49108 5.60736 4.49108 6.98455C4.49108 8.36173 5.60751 9.47816 6.98469 9.47816Z"
                                    stroke="#000" stroke-linecap="round" stroke-linejoin="round" />
                            </svg>