<svg width="27" height="29" viewBox="0 0 27 29" fill="none"
                                                                         xmlns="http://www.w3.org/2000/svg">
                                                                         <path fill-rule="evenodd" clip-rule="evenodd"
                                                                            d="M23.7849 6.21971C23.8878 6.37593 23.9337 6.56289 23.9148 6.74901C23.8958 6.93513 23.8132 7.10901 23.6809 7.24129L13.7218 17.1993C13.62 17.3011 13.4928 17.374 13.3535 17.4105L9.20542 18.4939C9.0683 18.5296 8.92421 18.5289 8.78746 18.4918C8.65071 18.4546 8.52604 18.3824 8.42584 18.2822C8.32564 18.182 8.25339 18.0573 8.21626 17.9206C8.17913 17.7838 8.1784 17.6397 8.21417 17.5026L9.2975 13.3556C9.32912 13.2311 9.38878 13.1155 9.47192 13.0176L19.4678 3.02821C19.6202 2.87605 19.8267 2.79059 20.042 2.79059C20.2573 2.79059 20.4638 2.87605 20.6162 3.02821L23.6809 6.09187C23.7198 6.13088 23.7546 6.17371 23.7849 6.21971ZM21.9573 6.66604L20.042 4.75179L10.8142 13.9796L10.1371 16.572L12.7295 15.895L21.9573 6.66604Z"
                                                                            fill="#0d6efd" />
                                                                         <path
                                                                            d="M21.7606 20.3942C22.0559 17.6658 22.1502 14.9164 22.0426 12.1719C22.0403 12.1072 22.0503 12.0427 22.072 11.9825C22.0938 11.9222 22.1268 11.8674 22.169 11.8215L23.232 10.6723C23.2611 10.6407 23.2979 10.6188 23.3382 10.6094C23.3785 10.5999 23.4204 10.6032 23.459 10.6188C23.4975 10.6345 23.5311 10.6619 23.5556 10.6977C23.5801 10.7335 23.5946 10.7761 23.5972 10.8206C23.7973 14.0806 23.7213 17.3535 23.3703 20.5985C23.1154 22.9601 21.3609 24.8113 19.1862 25.0741C15.4109 25.5261 11.6009 25.5261 7.82553 25.0741C5.65192 24.8113 3.89639 22.9601 3.64144 20.5985C3.19354 16.4587 3.19354 12.2765 3.64144 8.13667C3.89639 5.7751 5.65084 3.92392 7.82553 3.66113C10.691 3.31762 13.578 3.23441 16.4562 3.41236C16.4974 3.41556 16.5369 3.43145 16.57 3.45816C16.6031 3.48487 16.6284 3.52127 16.643 3.56305C16.6575 3.60484 16.6607 3.65025 16.6521 3.69392C16.6435 3.73759 16.6235 3.77769 16.5945 3.80946L15.5218 4.96806C15.4797 5.01331 15.4296 5.04878 15.3744 5.07229C15.3192 5.09579 15.2602 5.10682 15.2009 5.1047C12.7991 5.01644 10.3945 5.11597 8.00595 5.40253C7.30799 5.48604 6.65646 5.82149 6.1566 6.35469C5.65674 6.88788 5.33773 7.58769 5.25112 8.34106C4.81796 12.3451 4.81796 16.3901 5.25112 20.3942C5.33773 21.1475 5.65674 21.8473 6.1566 22.3805C6.65646 22.9137 7.30799 23.2492 8.00595 23.3327C11.6304 23.7707 15.3813 23.7707 19.0069 23.3327C19.7048 23.2492 20.3564 22.9137 20.8562 22.3805C21.3561 21.8473 21.674 21.1475 21.7606 20.3942Z"
                                                                            fill="#0d6efd" />
                                                                      </svg>