<svg xmlns="http://www.w3.org/2000/svg" version="1.1" xmlns:xlink="http://www.w3.org/1999/xlink" width="30" height="30" x="0" y="0" viewBox="0 0 512.001 512.001" style="enable-background:new 0 0 512 512" xml:space="preserve" class=""><g><path d="M312.891 474.531c-53.614 14.02-110.427 7.746-159.971-17.673-49.891-25.596-88.282-68.611-108.101-121.119-18.354-48.63-19.542-100.392-3.436-149.692 11.942-36.555 33.142-69.509 60.999-95.462l-5.138 42.64 29.938 3.609 11.327-93.99-92.81-10.973-3.541 29.946 41.602 4.92c-32.521 29.685-57.238 67.702-71.039 109.947C3.866 203.789-.383 231.928.093 260.321c.493 29.38 6.049 58.337 16.516 86.069 22.465 59.521 65.987 108.283 122.548 137.3 36.557 18.754 76.608 28.312 116.888 28.312 21.594 0 43.257-2.748 64.477-8.298l-7.631-29.173zM496.473 343.458c20.968-57.4 20.612-120.547-1-177.808-23.403-62.008-69.209-111.901-128.981-140.489C306.911-3.335 239.593-7.787 176.937 12.627l9.342 28.671c55.258-18.004 114.637-14.073 167.201 11.067 52.727 25.218 93.134 69.231 113.78 123.934 19.062 50.506 19.377 106.197.888 156.814-14.621 40.026-40.207 74.946-73.408 100.816l5.589-46.375-29.938-3.609-11.328 93.99 92.809 10.974 3.541-29.946-38.058-4.501a256.598 256.598 0 0 0 79.118-111.004z" fill="#545454" opacity="1" data-original="#000000" class=""></path><path d="M390.318 293.388c0-38.407-24.113-71.284-57.994-84.3 8.693-10.919 13.906-24.726 13.906-39.735 0-35.245-28.674-63.918-63.919-63.918-32.365 0-59.171 24.185-63.338 55.428-31.243 4.167-55.428 30.973-55.428 63.338 0 15.228 5.362 29.223 14.284 40.215-33.232 13.332-56.763 45.877-56.763 83.819v15.077h213.026v-15.077c0-14.24-3.319-27.717-9.216-39.707l65.442-.083v-15.057zM282.312 135.59c18.617 0 33.764 15.146 33.764 33.763 0 16.801-12.337 30.772-28.427 33.338-6.441-17.967-20.707-32.233-38.675-38.674 2.566-16.09 16.537-28.427 33.338-28.427zm-54.847 54.848c18.617 0 33.764 15.147 33.764 33.764 0 18.618-15.147 33.764-33.764 33.764-18.618 0-33.764-15.147-33.764-33.764-.001-18.617 15.146-33.764 33.764-33.764zm-74.33 142.721c6.708-25.874 30.259-45.038 58.202-45.038h32.485c27.942 0 51.493 19.164 58.202 45.038H153.135zm147.826-54.754a90.367 90.367 0 0 0-23.806-14.059c7.087-8.756 11.909-19.411 13.574-31.073h9.32c27.95 0 51.507 19.174 58.207 45.059l-57.295.073z" fill="#545454" opacity="1" data-original="#000000" class=""></path></g></svg>